<?xml version="1.0" encoding="utf-8"?>
<svg xmlns="http://www.w3.org/2000/svg" viewBox="202.6037 131.2139 594.9647 751.4752" width="594.965px" height="751.475px" preserveAspectRatio="none"><g id="object-0" transform="matrix(1, 0, 0, 1, 0, -7.105427357601002e-15)"><title>Layer 1</title><path transform="rotate(-0.541934 480.877 347.909)" id="svg_2" fill="#10100E" d="m634,163c1.2259,0.66105 1.2259,0.66105 2.47656,1.33545c12.00083,6.53363 23.47621,13.62614 34.52344,21.66455c0.6687,0.48469 1.3374,0.96937 2.02637,1.46875c4.71695,3.43539 9.3655,6.9514 13.97363,10.53125c1.00676,0.77859 2.01352,1.55719 3.05078,2.35938c16.44992,13.33423 32.82444,29.24696 44.94922,46.64062c0.41846,0.59007 0.83692,1.18014 1.26807,1.78809c14.52393,20.56343 23.06558,39.90117 20.37646,65.61035c-2.66554,14.20431 -10.97437,27.12847 -20.64453,37.60156c-0.61102,0.69094 -1.22203,1.38188 -1.85156,2.09375c-31.56117,33.84432 -85.00992,43.05972 -128.14844,51.59375c-0.93304,0.18641 -1.86608,0.37282 -2.82739,0.56488c-26.00149,5.1684 -51.93197,8.33409 -78.3725,9.87653c-3.49509,0.20644 -6.98934,0.42617 -10.4837,0.64453c-6.77141,0.4213 -13.54358,0.8288 -20.31641,1.22656c0.78085,-0.78069 1.5617,-1.56138 2.36621,-2.36572c22.14613,-22.15023 31.0196,-50.91865 40.48412,-80.05632c2.26661,-6.969 4.6224,-13.90442 7.02467,-20.82796c0.36094,-1.04052 0.72187,-2.08103 1.09375,-3.15308c2.87885,-8.24926 5.89072,-16.44386 9.03125,-24.59692c-22.0467,17.88274 -36.82317,36.7848 -50.03125,61.71875c-8.94045,16.8157 -18.36858,32.91705 -30.96875,47.28125c-0.75023,0.8598 -1.50047,1.71961 -2.27344,2.60547c-4.72369,5.32826 -9.57173,10.48317 -14.72656,15.39453c-0.55599,0.5883 -1.11198,1.17659 -1.68481,1.78271c-6.87352,6.41217 -14.83058,7.05548 -23.77857,8.28125c-4.67036,0.64041 -9.32727,1.3679 -13.98584,2.08838c-1.42909,0.21788 -1.42909,0.21788 -2.88705,0.44016c-11.80539,1.83454 -23.44837,4.41282 -35.10587,7.00687c-0.76668,0.16825 -1.53337,0.33651 -2.32329,0.50987c-1.4304,0.31454 -2.85948,0.63521 -4.28689,0.96304c-4.72367,1.03972 -4.72367,1.03972 -6.94768,-0.07228c0.35079,-0.46559 0.70157,-0.93119 1.06299,-1.41089c13.09178,-17.43238 25.91312,-35.17799 35.93701,-54.58911c0.56195,-1.08499 0.56195,-1.08499 1.13525,-2.19189c11.21805,-21.95203 17.92562,-45.51576 21.86475,-69.80811c-0.55687,1.08797 -1.11375,2.17594 -1.6875,3.29688c-10.04846,19.43352 -23.04102,35.72087 -37.33203,52.1875c-27.23724,30.64534 -27.23724,30.64534 -40.10156,68.14843c-0.22497,4.32483 -0.53405,6.68827 -2.87891,10.36719c-6.36292,3.65478 -13.85418,5.1387 -20.87646,7.06689c-30.91599,9.23565 -60.74929,33.0199 -76.24854,61.12061c-7.15716,13.4297 -10.99281,27.69108 -11.5,42.875c-0.03867,0.961 -0.07734,1.92199 -0.11719,2.91211c-0.0932,2.34162 -0.179,4.68325 -0.25781,7.02539c-2.44782,-3.00786 -3.97539,-5.94441 -5.45313,-9.52344c-0.67663,-1.63872 -0.67663,-1.63872 -1.36694,-3.31054c-0.47188,-1.16854 -0.94375,-2.33707 -1.42993,-3.54102c-0.48799,-1.20721 -0.97598,-2.41441 -1.47876,-3.6582c-6.74067,-16.91235 -12.28856,-33.98384 -15.27124,-51.9668c-0.18192,-1.08829 -0.36384,-2.17658 -0.55127,-3.29785c-11.50775,-71.42002 3.07942,-149.15183 41.34668,-210.74902c1.22177,-1.98098 2.40863,-3.97987 3.59131,-5.98438c6.01421,-10.06909 13.0108,-19.05302 20.61328,-27.96875c0.64711,-0.76699 1.29422,-1.53398 1.96094,-2.32422c1.65081,-1.92058 3.33403,-3.8031 5.03906,-5.67578c0.43667,-0.48034 0.87334,-0.96067 1.32324,-1.45557c8.48058,-9.31074 17.01314,-18.43848 26.67676,-26.54443c0.54125,-0.45504 1.08249,-0.91008 1.64014,-1.37891c42.11841,-35.25458 90.99948,-57.81416 145.35986,-66.62109c0.90959,-0.14953 1.81919,-0.29906 2.75635,-0.45313c56.98037,-8.9396 124.02783,-2.32434 175.24365,25.45313z"/><path transform="rotate(3.49257 514.196 470.5)" id="svg_3" d="M 756.5 288.5 C 770.963 305.118 774.261 333.01 774.376 353.877 C 774.39 355.076 774.236 354.94 774.249 356.163 C 774.358 370.674 771.748 385.513 764.312 398.312 C 763.923 399.012 763.533 399.711 763.132 400.432 C 737.104 446.088 685.467 470.545 638 487.5 C 637.334 487.739 636.667 487.979 635.981 488.226 C 612.936 496.484 589.316 502.728 565.562 508.562 C 562.971 509.203 560.381 509.845 557.79 510.488 C 553.09 511.654 548.39 512.817 543.689 513.978 C 534.918 516.145 526.151 518.33 517.387 520.523 C 516.732 520.687 516.077 520.851 515.402 521.019 C 508.299 522.796 501.196 524.576 494.094 526.356 C 473.582 531.495 473.582 531.495 463.855 533.832 C 414.397 545.746 360.582 561.251 322.5 596.5 C 321.784 597.134 321.069 597.768 320.332 598.421 C 311.669 606.453 303.205 618.44 302.64 630.462 C 302.625 631.833 302.458 635.578 302.658 637.379 C 303.532 645.254 305.319 646.722 304.944 647.765 C 303.807 650.928 292.206 641.034 288.062 637.312 C 287.176 636.516 286.383 635.622 285.518 634.752 C 279.776 628.921 274.506 622.974 269.5 616.5 C 267.897 614.603 266.293 612.707 264.687 610.812 C 255.842 600.022 254.726 590.011 255.5 576.5 C 258.387 553.697 276.15 535.213 293.401 521.42 C 329.004 493.965 372.126 479.894 415.487 470.189 C 418.971 469.392 422.442 468.547 425.914 467.703 C 454.634 460.783 483.727 456.162 512.886 451.522 C 514.099 451.329 515.313 451.136 516.562 450.937 C 518.358 450.651 518.358 450.651 520.19 450.36 C 643.227 433.09 685.395 430.447 741.443 365.771 C 755.808 341.359 758.524 332.012 758.508 312.279 C 758.509 311.454 758.689 310.788 758.689 309.938 C 758.627 302.658 757.809 295.667 756.5 288.5 Z" style="fill: rgb(143, 150, 18);"/><path transform="rotate(9.1319 513.465 589.499)" id="svg_4" d="M 757.826 357.107 C 762.196 367.856 763.463 379.36 763.77 387.821 C 765.542 436.662 740.792 475.742 706.937 509.812 C 700.404 516.309 693.824 522.402 686.499 527.999 C 685.486 528.818 684.473 529.636 683.429 530.48 C 654.891 553.532 622.688 571.725 589.824 587.849 C 587.114 589.19 584.416 590.555 581.718 591.921 C 570.582 597.551 559.399 603.033 548.062 608.249 C 521.109 620.67 494.493 633.668 468.499 647.999 C 467.674 648.453 466.849 648.906 465.999 649.374 C 431.526 668.496 397.949 692.689 372.499 722.999 C 371.602 724.046 370.704 725.091 369.804 726.136 C 365.297 731.373 360.807 736.625 356.348 741.903 C 355.442 742.976 354.534 744.048 353.625 745.119 C 351.347 747.805 349.083 750.501 346.847 753.222 C 334.817 767.727 321.463 781.514 306.499 792.999 C 305.377 793.919 304.257 794.842 303.14 795.769 C 296.367 801.357 289.43 806.561 282.124 811.437 C 281.4 811.921 280.675 812.404 279.929 812.903 C 274.92 816.191 269.773 819.156 264.499 821.999 C 264.499 821.339 264.499 820.679 264.499 819.999 C 266.187 818.589 266.187 818.589 268.499 816.937 C 289.8 800.687 299.556 774.305 305.41 749.081 C 305.666 747.985 305.666 747.985 305.927 746.867 C 307.287 741.009 308.562 735.136 309.821 729.256 C 318.874 687.023 329.864 647.555 365.499 619.999 C 366.486 619.209 367.472 618.419 368.488 617.605 C 412.007 583.19 465.556 565.926 517.399 548.414 C 584.287 525.985 584.287 525.985 648.534 497.009 C 650.539 495.979 652.552 494.968 654.566 493.956 C 689.436 476.214 720.35 451.85 740.499 417.999 C 740.846 417.421 741.193 416.843 741.55 416.248 C 750.703 400.749 757.364 383.021 758.124 364.937 C 758.163 364.167 758.18 363.261 758.22 362.468 C 758.312 360.6 757.745 358.975 757.826 357.107 Z" style="fill: rgb(143, 150, 18);"/><path transform="rotate(12.6907 541.422 652.586)" stroke="null" id="svg_5" d="M 745.309 472.306 C 746.784 469.2 751.821 448.324 749.819 472.016 C 749.533 475.401 747.195 484.149 746.717 485.322 C 745.362 488.635 742.098 499.89 740.367 503.022 C 740.44 505.852 725.751 534.107 724.336 536.093 C 711.04 554.759 697.988 572.26 682.526 589.086 C 681.869 589.834 681.213 590.581 680.537 591.351 C 675.702 596.851 670.63 602.087 665.463 607.273 C 664.802 607.939 664.142 608.604 663.461 609.289 C 659.553 613.185 655.535 616.893 651.358 620.498 C 648.93 622.602 646.573 624.781 644.213 626.961 C 638.811 631.882 633.213 636.5 627.526 641.086 C 626.342 642.06 625.16 643.035 623.979 644.012 C 615.004 651.406 605.805 658.45 596.475 665.391 C 591.914 668.785 587.403 672.24 582.901 675.711 C 569.474 686.026 555.632 695.776 541.777 705.503 C 539.385 707.185 536.998 708.873 534.612 710.562 C 524.894 717.424 515.071 724.053 505.051 730.462 C 500.326 733.501 495.626 736.579 490.925 739.654 C 489.271 740.736 487.616 741.817 485.961 742.898 C 475.161 749.959 464.431 757.12 453.776 764.398 C 452.822 765.049 451.869 765.699 450.887 766.369 C 446.033 769.682 441.186 773.005 436.35 776.346 C 433.082 778.602 429.805 780.846 426.526 783.086 C 425.744 783.62 424.963 784.155 424.158 784.705 C 398.687 802.074 375.169 821.182 347.836 835.389 C 346.063 836.313 344.295 837.247 342.529 838.183 C 341.628 838.653 340.726 839.122 339.798 839.605 C 338.698 840.183 338.698 840.183 337.575 840.773 C 336.727 841.092 336.727 841.092 335.861 841.418 C 335.201 841.088 334.541 840.758 333.861 840.418 C 334.697 839.847 335.534 839.276 336.396 838.687 C 355.691 825.332 369.658 804.677 384.957 786.902 C 387.255 784.241 389.64 781.668 392.026 779.086 C 395.046 775.808 398.048 772.52 400.963 769.148 C 409.618 759.187 418.754 749.692 428.1 740.381 C 429.792 738.694 431.48 737.002 433.166 735.309 C 438.786 729.686 444.469 724.242 450.526 719.086 C 452.07 717.673 453.613 716.256 455.151 714.836 C 460.746 709.794 466.627 705.172 472.591 700.579 C 474.578 699.045 476.556 697.5 478.533 695.953 C 488.907 687.88 499.604 680.395 510.526 673.086 C 511.583 672.376 512.641 671.666 513.731 670.935 C 528.316 661.151 542.966 651.469 557.651 641.836 C 611.291 607.152 611.291 607.152 662.526 569.086 C 663.455 568.339 664.384 567.593 665.342 566.824 C 686.85 549.641 686.85 549.641 705.936 529.922 C 707.619 527.978 709.442 526.263 711.276 524.461 C 716.974 518.865 727.182 505.152 727.712 504.334 C 734.436 493.964 739.585 484.362 745.309 472.306 Z" style="fill: rgb(143, 150, 18);"/><path id="svg_6" fill="#F5F4F1" d="m462,151c-2.38174,2.40275 -4.76636,4.78458 -7.25391,7.07813c-22.6414,21.30054 -33.22369,50.56358 -41.75045,79.66934c-5.41027,18.42737 -11.72571,36.39212 -20.99564,53.25253c-0.39381,0.72961 -0.78762,1.45922 -1.19336,2.21094c-10.01857,18.45281 -22.64351,34.66438 -36.08203,50.72607c-7.88781,9.43544 -15.60901,18.86054 -22.42285,29.11621c-1.54481,2.31026 -3.11509,4.60244 -4.68457,6.896c-10.66284,15.66024 -18.82424,30.8375 -25.53907,48.57031c-0.34611,0.90702 -0.69222,1.81403 -1.04882,2.74854c-0.6989,1.855 -1.37931,3.71706 -2.04297,5.58496c-0.33065,0.89799 -0.66129,1.79598 -1.00196,2.72119c-0.28649,0.80397 -0.57298,1.60794 -0.86816,2.43628c-1.38103,2.46151 -2.47962,3.0652 -5.11621,3.9895c-0.99,0 -1.98,0 -3,0c-0.39598,-11.71807 0.44807,-22.55381 3,-34c0.26684,-1.20914 0.53367,-2.41828 0.80859,-3.66406c7.32707,-29.89442 22.81403,-56.58295 39.92212,-81.86182c15.91213,-23.55755 29.7675,-48.7743 40.34058,-75.17285c6.58306,-16.31229 13.94973,-32.28439 21.4585,-48.18652c0.89988,-1.90647 1.79625,-3.81461 2.68652,-5.72559c6.29004,-13.47865 14.53496,-24.59807 24.78369,-35.38916c0.71414,-0.86367 1.42828,-1.72734 2.16406,-2.61719c3.87146,-3.25288 7.59031,-4.01356 12.46094,-5.07031c0.89139,-0.20641 1.78277,-0.41282 2.70117,-0.62549c2.55382,-0.58358 5.11193,-1.14013 7.67383,-1.68701c1.79051,-0.39252 1.79051,-0.39252 3.61719,-0.79297c7.32657,-1.47921 7.32657,-1.47921 11.38281,-0.20703z"/><path id="svg_7" fill="#F4F4F1" d="m630,177c5.50149,0.86013 9.16645,3.36052 13.75,6.375c0.77988,0.495 1.55977,0.99 2.36328,1.5c0.74121,0.48211 1.48242,0.96422 2.2461,1.46094c0.67514,0.43876 1.35029,0.87753 2.04589,1.32959c1.59473,1.33447 1.59473,1.33447 2.59473,4.33447c1.04179,13.02237 -1.41562,25.89037 -5.53516,38.19922c-0.38456,1.14926 -0.38456,1.14926 -0.7769,2.32175c-3.08671,8.96645 -6.91013,17.60688 -10.74766,26.27182c-7.17215,16.21443 -14.16272,32.43477 -19.94028,49.20721c-0.65803,1.84066 -0.65803,1.84066 -1.32935,3.71851c-3.12505,8.89856 -5.67266,17.86124 -7.92456,27.01977c-0.27183,1.10499 -0.54367,2.20998 -0.82374,3.34845c-1.11902,4.57557 -2.2294,9.15299 -3.32054,13.73529c-0.81133,3.39276 -1.64442,6.77958 -2.48072,10.16626c-0.23973,1.03329 -0.47946,2.06658 -0.72645,3.13118c-1.40161,5.60921 -2.60088,9.24594 -7.39464,12.88054c-6.5775,3.06998 -13.52939,4.30919 -20.625,5.6875c-1.65902,0.33741 -1.65902,0.33741 -3.35156,0.68164c-5.11056,1.01044 -9.79586,1.75321 -15.02344,1.63086c0.48243,-1.53648 0.48243,-1.53648 0.97461,-3.104c5.42354,-17.30439 10.82618,-34.59471 15.40039,-52.146c8.89435,-33.99664 21.6317,-65.91956 39.62598,-96.17407c9.76707,-16.49921 19.42875,-34.98286 20.56152,-54.38843c0.06478,-1.03931 0.06478,-1.03931 0.13086,-2.09961c0.10525,-1.69578 0.20637,-3.39181 0.30664,-5.08789z"/><path id="svg_8" fill="#F4F4F1" d="m361,183c0.33,0.66 0.66,1.32 1,2c-0.75947,1.80375 -1.61301,3.56793 -2.5,5.3125c-5.74841,12.1075 -9.48049,24.98895 -13.12695,37.85864c-7.67075,27.0514 -19.2309,48.13098 -38.37305,68.82886c-1.48147,1.64376 -2.96062,3.28961 -4.4375,4.9375c-2.27438,2.53757 -4.55839,5.05813 -6.89453,7.53906c-16.47546,17.61996 -29.59893,37.62661 -39.66797,59.52344c-0.33097,0.71704 -0.66193,1.43408 -1.00293,2.17285c-13.236,29.06854 -20.61365,61.43001 -25.99707,92.82715c-0.33071,1.89716 -0.66145,3.79431 -0.99263,5.69139c-1.3548,7.76632 -2.6874,15.53629 -4.00737,23.30861c-0.33,0 -0.66,0 -1,0c-8.95651,-64.6503 -2.10277,-124.26964 37.5625,-177.85937c2.90947,-3.74875 6.00322,-7.25454 9.23047,-10.73047c3.93981,-4.30242 7.55892,-8.86048 11.20703,-13.41016c0.44134,-0.54173 0.88269,-1.08346 1.3374,-1.6416c6.57979,-8.07656 12.58805,-16.22421 17.6626,-25.3584c0.32565,-0.56864 0.6513,-1.13728 0.98682,-1.72314c4.12179,-7.3292 6.98013,-14.51145 8.69677,-22.76514c5.35478,-25.45216 5.35478,-25.45216 16.39429,-33.17847c1.50853,-0.97942 3.03214,-1.936 4.56958,-2.86938c3.3158,-2.06326 6.40032,-4.40309 9.52881,-6.73682c6.45674,-4.7988 13.10967,-9.29812 19.82373,-13.72705z"/><path id="svg_9" fill="#F5F4F1" d="m581,158c1.73018,0.45451 3.4591,0.91379 5.1875,1.375c0.96293,0.25523 1.92586,0.51047 2.91797,0.77344c2.71663,0.79922 5.2859,1.7547 7.89453,2.85156c1.19271,16.99608 -6.93914,34.97596 -17.87891,47.70703c-6.32258,6.83491 -12.86198,13.06323 -20.13672,18.87891c-4.00716,3.24139 -7.89815,6.61005 -11.79638,9.98095c-3.45891,2.98137 -6.9734,5.85887 -10.56299,8.68311c-11.40444,9.27876 -21.67492,20.10473 -30.625,31.75c-0.78375,0.9784 -1.5675,1.9568 -2.375,2.96484c-14.23499,17.875 -25.07726,37.70349 -34.5,58.47266c-7.43126,16.29329 -17.21568,31.67231 -27.125,46.5625c-1.61809,-3.23617 -0.41467,-6.54795 0.1875,-9.99609c0.1376,-0.8121 0.2752,-1.62419 0.41698,-2.4609c0.4557,-2.66191 0.92386,-5.32138 1.39552,-7.98051c0.15961,-0.9052 0.31922,-1.81041 0.48367,-2.74304c4.03342,-22.72161 9.05586,-44.67356 18.51633,-65.81946c0.3532,-0.80373 0.70641,-1.60746 1.07031,-2.43555c7.33523,-16.58341 16.43267,-31.54852 27.92969,-45.56445c0.66081,-0.81525 0.66081,-0.81525 1.33496,-1.64697c7.30786,-8.94941 15.31681,-17.18792 23.47754,-25.35303c0.49382,-0.49482 0.98764,-0.98964 1.49643,-1.49945c5.71913,-5.71782 11.55022,-11.23671 17.69107,-16.50055c1.83869,-1.66075 3.67266,-3.32677 5.5,-5c3.15185,-2.87872 6.32071,-5.7232 9.5625,-8.5c11.6814,-10.2331 21.00567,-21.87999 29.9375,-34.5z"/><path id="svg_10" fill="#F4F4F1" d="m686,215c8.51142,5.57438 13.64758,9.95398 16.33984,20.08203c5.15433,30.59046 -10.25807,59.52193 -27.33984,83.91797c14.21477,-2.8732 26.05563,-7.97283 34.30078,-20.24219c8.43905,-13.69647 11.12686,-29.01353 12.69922,-44.75781c4.365,3.93858 7.06173,8.078 9.8125,13.25c0.4067,0.71285 0.8134,1.4257 1.23242,2.16016c4.30695,8.03481 3.43194,15.28934 1.33008,23.90234c-0.17966,0.73638 -0.35933,1.47275 -0.54443,2.23145c-5.13757,19.83299 -19.28315,36.02334 -36.73682,46.2998c-18.07701,9.79325 -37.69208,16.53505 -57.09375,23.15625c-0.89203,0.31195 -1.78406,0.62391 -2.70313,0.94531c-0.79921,0.27586 -1.59843,0.55172 -2.42187,0.83594c-0.6832,0.23783 -1.36641,0.47566 -2.07031,0.7207c-1.80469,0.49805 -1.80469,0.49805 -4.80469,0.49805c5.14908,-23.84837 16.87334,-44.4872 29.5625,-65.0625c14.96699,-24.29272 27.16983,-48.13166 28.0625,-77.125c0.03867,-1.04736 0.07734,-2.09473 0.11719,-3.17383c0.093,-2.54606 0.17884,-5.09214 0.25781,-7.63867z"/><path id="svg_11" fill="#F5F4F1" d="m523.5625,147.5625c1.70446,0.0087 1.70446,0.0087 3.44336,0.01758c9.14656,0.1349 9.14656,0.1349 12.99414,2.41992c-3.20975,3.25997 -6.42661,6.51271 -9.64966,9.75952c-1.09075,1.10068 -2.17968,2.20316 -3.2666,3.30762c-6.27878,6.37738 -12.60251,12.41478 -19.63525,17.96631c-2.57306,2.0666 -5.01389,4.23925 -7.44849,6.46655c-3.23892,2.96058 -6.5441,5.73494 -10,8.4375c-13.19864,10.72389 -25.095,23.24456 -35,37.0625c-0.42136,0.58717 -0.84272,1.17434 -1.27686,1.7793c-3.7687,5.2891 -7.43287,10.61695 -10.72314,16.2207c-1.10174,-3.30522 -0.91057,-4.18215 -0.03125,-7.4375c0.23783,-0.88575 0.47566,-1.77149 0.7207,-2.68408c0.26748,-0.94988 0.53496,-1.89976 0.81055,-2.87842c0.27264,-0.97953 0.54527,-1.95905 0.82617,-2.96826c8.15355,-28.62523 19.55287,-48.39869 43.34033,-66.79199c10.5378,-8.1869 10.5378,-8.1869 19.38819,-18.03272c4.75908,-3.56616 9.73663,-2.81205 15.50781,-2.64453z"/><path id="svg_13" fill="#E6E5E4" d="m447,351c0.66,0.66 1.32,1.32 2,2c-0.20703,2.94141 -0.20703,2.94141 -0.8125,6.5625c-0.1998,1.25168 -0.39961,2.50336 -0.60547,3.79297c-0.19207,1.20269 -0.38414,2.40539 -0.58203,3.64453c-0.37219,2.99756 -0.68917,5.99531 -1,9c1.32,-0.33 2.64,-0.66 4,-1c-1.11852,1.98283 -2.24501,3.96118 -3.375,5.9375c-0.93973,1.65322 -0.93973,1.65322 -1.89844,3.33984c-1.72656,2.72266 -1.72656,2.72266 -3.72656,3.72266c0.69238,-4.46596 1.38619,-8.93169 2.0813,-13.39722c0.23606,-1.51784 0.47175,-3.03574 0.70703,-4.55371c0.33907,-2.18709 0.67953,-4.37396 1.02026,-6.56079c0.10421,-0.67415 0.20842,-1.34831 0.31578,-2.04289c0.54685,-3.50042 1.14941,-6.9776 1.87563,-10.44539z"/><path id="svg_19" fill="#F2F2F1" d="m224,474c0.99,0.33 1.98,0.66 3,1c-0.14195,2.06277 -0.28872,4.12521 -0.4375,6.1875c-0.08121,1.14855 -0.16242,2.29711 -0.24609,3.48047c-0.27045,2.84801 -0.69163,5.54413 -1.31641,8.33203c-0.33,0 -0.66,0 -1,0c-1.06308,-5.97982 -1.35707,-11.92977 -1,-18c0.33,-0.33 0.66,-0.66 1,-1z"/><path id="svg_24" fill="#E8E8E6" d="m567,343c0.66,0 1.32,0 2,0c-0.95703,7.38606 -2.04129,14.14118 -5,21c-0.66,0 -1.32,0 -2,0c1.31118,-7.1112 3.01721,-14.047 5,-21z"/><path id="svg_25" fill="#E6E6E5" d="m445,236c0.66,0.66 1.32,1.32 2,2c-0.33,0.66 -0.66,1.32 -1,2c1.32,-0.99 2.64,-1.98 4,-3c0,3.88292 -1.3786,5.46753 -3.5,8.6875c-0.64969,0.99387 -1.29937,1.98773 -1.96875,3.01172c-0.75797,1.13889 -0.75797,1.13889 -1.53125,2.30078c-1.23922,-3.71767 -0.57019,-5.4389 0.4375,-9.1875c0.43119,-1.63002 0.43119,-1.63002 0.87109,-3.29297c0.22817,-0.83144 0.45633,-1.66289 0.69141,-2.51953z"/><path id="svg_28" fill="#191817" d="m548,303c0.66,0.66 1.32,1.32 2,2c-0.33561,4.8104 -1.83339,8.75011 -4,13c-0.99,0.33 -1.98,0.66 -3,1c1.58922,-5.36095 3.18973,-10.70844 5,-16z"/><path id="svg_30" fill="#ECEBEA" d="m361,183c0.33,0.66 0.66,1.32 1,2c-0.77734,1.94531 -0.77734,1.94531 -1.9375,4.125c-0.38027,0.72445 -0.76055,1.44891 -1.15234,2.19531c-0.45053,0.83145 -0.45053,0.83145 -0.91016,1.67969c-0.66,-0.33 -1.32,-0.66 -2,-1c0,-0.99 0,-1.98 0,-3c-0.66,-0.33 -1.32,-0.66 -2,-1c2.31,-1.65 4.62,-3.3 7,-5zm-9,6c0.66,0.33 1.32,0.66 2,1c-0.99,0 -1.98,0 -3,0c0.33,-0.33 0.66,-0.66 1,-1zm-3,2c0.66,0.33 1.32,0.66 2,1c-0.99,0 -1.98,0 -3,0c0.33,-0.33 0.66,-0.66 1,-1zm-3,2c2,1 2,1 2,1l-2,-1z"/><path id="svg_42" fill="#1D1C1B" d="m624,159c3.48671,1.10941 6.77484,2.26338 10,4c0,0.99 0,1.98 0,3c-3.33333,-1.33333 -6.66667,-2.66667 -10,-4c0,-0.99 0,-1.98 0,-3z"/><path id="svg_43" fill="#191916" d="m242,414c0.33,0 0.66,0 1,0c-0.46801,4.05606 -0.87953,7.46589 -3,11c-0.66,-0.33 -1.32,-0.66 -2,-1c1.00193,-3.79304 1.81024,-6.71536 4,-10z"/><path id="svg_44" fill="#EBEBE9" d="m326,337c0.33,0.66 0.66,1.32 1,2c-2.19567,6.47144 -2.19567,6.47144 -5.1875,8.4375c-0.89719,0.27844 -0.89719,0.27844 -1.8125,0.5625c1.45044,-4.10959 3.51111,-7.43259 6,-11z"/><path id="svg_45" fill="#1C1C19" d="m435,143c0,0.99 0,1.98 0,3c-6.625,1 -6.625,1 -10,1c-0.33,-0.66 -0.66,-1.32 -1,-2c7.625,-2 7.625,-2 11,-2z"/><path id="svg_47" fill="#ECECEA" d="m597,369c0.33,0 0.66,0 1,0c-0.49231,7.38462 -0.49231,7.38462 -3.0625,10.5c-0.63938,0.495 -1.27875,0.99 -1.9375,1.5c0.2836,-1.43911 0.57721,-2.87626 0.875,-4.3125c0.16242,-0.80051 0.32484,-1.60102 0.49219,-2.42578c0.63281,-2.26172 0.63281,-2.26172 2.63281,-5.26172z"/><path id="svg_49" fill="#EAEAE8" d="m625,278c1.37096,3.69037 0.60011,5.70884 -0.9375,9.25c-0.38027,0.89203 -0.76055,1.78406 -1.15234,2.70313c-0.30036,0.67546 -0.60071,1.35093 -0.91016,2.04687c-0.33,0 -0.66,0 -1,0c0,-2.31 0,-4.62 0,-7c0.66,0 1.32,0 2,0c0.14437,-0.78375 0.28875,-1.5675 0.4375,-2.375c0.5625,-2.625 0.5625,-2.625 1.5625,-4.625z"/><path id="svg_55" fill="#F5F4F3" d="m444,376c0.33,0.66 0.66,1.32 1,2c-0.33,0.99 -0.66,1.98 -1,3c0.66,0.33 1.32,0.66 2,1c-1.32,1.98 -2.64,3.96 -4,6c-1.30533,-2.61065 -0.78283,-3.75548 -0.125,-6.5625c0.18305,-0.80566 0.36609,-1.61133 0.55469,-2.44141c0.57031,-1.99609 0.57031,-1.99609 1.57031,-2.99609z"/><path id="svg_58" fill="#1F1E1D" d="m539,329c0.33,0 0.66,0 1,0c0.125,7.625 0.125,7.625 -1,11c-0.99,0 -1.98,0 -3,0c0.99,-3.63 1.98,-7.26 3,-11z"/><path id="svg_61" fill="#EBEAE9" d="m345,194c0.33,0.66 0.66,1.32 1,2c-0.66,-0.33 -1.32,-0.66 -2,-1c0.33,-0.33 0.66,-0.66 1,-1zm-3,2c0.66,0.33 1.32,0.66 2,1c-1.98,0.99 -1.98,0.99 -4,2c0.66,-0.99 1.32,-1.98 2,-3zm-2,3c-1.75,3.875 -1.75,3.875 -4,5c-0.66,-0.66 -1.32,-1.32 -2,-2c3.75,-3 3.75,-3 6,-3z"/><path id="svg_64" fill="#181815" d="m297,456c0.99,0.33 1.98,0.66 3,1c-2.12781,2.34059 -4.11562,3.707 -7,5c-0.33,-0.99 -0.66,-1.98 -1,-3c2.3125,-1.5625 2.3125,-1.5625 5,-3z"/><path id="svg_67" fill="#F9FAF8" d="m224,474c0.99,0.33 1.98,0.66 3,1c0,1.65 0,3.3 0,5c-1.32,0.33 -2.64,0.66 -4,1c-0.04254,-1.99955 -0.04081,-4.00042 0,-6c0.33,-0.33 0.66,-0.66 1,-1z"/><path id="svg_68" fill="#1A1A17" d="m334,440c0.66,0.33 1.32,0.66 2,1c0,0.66 0,1.32 0,2c-2.64,0.66 -5.28,1.32 -8,2c-0.33,-0.99 -0.66,-1.98 -1,-3c1.32,0.33 2.64,0.66 4,1c0,-0.66 0,-1.32 0,-2c0.99,-0.33 1.98,-0.66 3,-1z"/><path id="svg_70" fill="#E9E9E7" d="m296,397c0.33,0 0.66,0 1,0c0.39063,5.85938 0.39063,5.85938 0,8c-1.32,1.32 -2.64,2.64 -4,4c0.99,-3.96 1.98,-7.92 3,-12z"/><path id="svg_73" fill="#E3E2E0" d="m456,316c0.66,0.66 1.32,1.32 2,2c-0.375,3.625 -0.375,3.625 -1,7c-0.99,0 -1.98,0 -3,0c0.66,-2.97 1.32,-5.94 2,-9z"/><path id="svg_75" fill="#EBEBE9" d="m449,223c0.99,0.33 1.98,0.66 3,1c-0.66,0 -1.32,0 -2,0c0.33,0.99 0.66,1.98 1,3c-0.66,0 -1.32,0 -2,0c0.33,0.99 0.66,1.98 1,3c-1.32,1.32 -2.64,2.64 -4,4c0.99,-3.63 1.98,-7.26 3,-11z"/><path id="svg_81" fill="#21201F" d="m424,313c1.88344,3.76688 2.22058,5.02959 2,9c-0.99,0 -1.98,0 -3,0c0.33,-2.97 0.66,-5.94 1,-9z"/><path id="svg_88" fill="#EBEAE9" d="m383,408c0.66,0.33 1.32,0.66 2,1c-2.475,3.465 -2.475,3.465 -5,7c-1,-3 -1,-3 -0.1875,-5.125c1.1875,-1.875 1.1875,-1.875 3.1875,-2.875z"/><path id="svg_89" fill="#1C1C1A" d="m221,397c1.88344,3.76688 2.22058,5.02959 2,9c-0.99,0.33 -1.98,0.66 -3,1c0.33,-3.3 0.66,-6.6 1,-10z"/><path id="svg_90" fill="#21201E" d="m212,372c1.85777,3.13498 2.2014,5.37471 2,9c-0.99,-0.33 -1.98,-0.66 -3,-1c0.33,-2.64 0.66,-5.28 1,-8z"/><path id="svg_91" fill="#E9EAE8" d="m491,252c0.33,1.32 0.66,2.64 1,4c-1.65,1.32 -3.3,2.64 -5,4c0,-3.90839 1.50568,-5.11594 4,-8z"/><path id="svg_93" fill="#242422" d="m460,138c0,0.99 0,1.98 0,3c-3.3,-0.33 -6.6,-0.66 -10,-1c0,-0.33 0,-0.66 0,-1c3.43515,-0.62457 6.49065,-1 10,-1z"/><path id="svg_95" fill="#1D1C1B" d="m219,345c2.08954,4.17908 2.16553,4.80411 1,9c-0.99,0 -1.98,0 -3,0c0.66,-2.97 1.32,-5.94 2,-9z"/><path id="svg_96" fill="#090908" d="m247,281c0.66,0.33 1.32,0.66 2,1c-0.99,2.31 -1.98,4.62 -3,7c-0.99,0 -1.98,0 -3,0c1.32,-2.64 2.64,-5.28 4,-8z"/><path id="svg_97" fill="#EEEDEC" d="m722,254c4.875,4.625 4.875,4.625 6,8c-3.02015,-1.00672 -4.09317,-1.54836 -6,-4c0,-1.32 0,-2.64 0,-4z"/><path id="svg_98" fill="#1A1918" d="m411,244c0.66,0.66 1.32,1.32 2,2c-0.99,2.31 -1.98,4.62 -3,7c-0.66,0 -1.32,0 -2,0c0.99,-2.97 1.98,-5.94 3,-9z"/></g></svg>