<?xml version="1.0" encoding="UTF-8"?>
<svg version="1.1" viewBox="0 0 2048 1497" width="1280" height="1280" xmlns="http://www.w3.org/2000/svg">
<path transform="translate(969,43)" d="m0 0 46 1 42 3 44 5 36 6 39 8 40 10 45 14 40 15 31 13 26 12 26 13 23 13 19 11 22 14 15 10 17 12 16 12 13 10 11 9 13 11 10 9 8 7 13 12 31 31 7 8 12 14 9 10 10 13 14 18 13 19 7 10 14 22 14 24 9 16 8 16 12 26 11 27 12 34 8 27 8 32 6 31 5 34 3 36 1 27v13h-141l-263-2-3-1-1-32v-85l1-47 9-10 9-11 11-12 9-11 14-15 9-11 10-11-2-4-11-12-9-11-13-14-9-11-13-14-7-8-12-14v-2l-4 1-7 8-9 10-9 11-13 14-9 11-13 14-9 11-8 8 2 4 13 14 9 11 13 14 9 11 12 13 7 8v2l3 1 1 2v167h-81l-2-4-2-26-5-32-6-25-11-33-12-27-13-24-12-18-11-15-11-13-9-10-19-19-11-9-13-10-23-15-24-13-19-8-20-7-22-6-28-5-27-2h-17l-26 2-29 5-25 7-27 10-26 13-22 14-16 12-16 13-14 14h-2v2h-2l-2 4-11 12-11 14-14 20-14 24-12 25-10 26-7 24-5 22-4 26-2 24-1 4-5 1-128-1-354-3-5-1 1-30 3-34 5-36 8-39 8-30 10-32 13-34 13-30 18-36 14-24 11-18 14-21 13-18 12-16 13-16 9-11 10-11 7-8 16-17 20-20 8-7 15-14 10-8 14-12 13-10 20-15 29-20 19-12 20-12 23-13 35-18 36-16 27-11 28-10 34-11 29-8 38-9 36-7 40-6 38-4 33-2z"/>
<path transform="translate(989,767)" d="m0 0h44l9 3 13 11 14 11 11 9 16 13 14 11 16 13 15 12 14 11 17 14 14 11 17 14 14 11 32 26 14 11 16 13 14 11 17 14 14 11 17 14 14 11 16 13 10 8 16 13 14 11 16 13 14 11 17 14 14 11 11 9 15 12 14 11 17 14 20 16 11 9 16 13 17 13-1 4-13 13-7 8-17 16-20 18-10 8-11 9-4-1v-2l-4-2-200-200-3-2v-2l-4-2v-2l-3-1v-2l-4-2-271-271-6-5-5-6-3-2v-2l-4-2-3-3v-2l-4-2-7-7z"/>
<path transform="translate(876,766)" d="m0 0 45 1-6 7-12 12-7 8-38 38-7 8-31 31-7 8-34 34-1 2h-2l-2 4-43 43-7 8-36 36-7 8-35 35-7 8-37 37-7 8-39 39-1 2h-2l-2 4-39 39-7 8-33 33-7 8-42 42-1 2h-2l-2 4-4-1-14-12-8-7-17-16-8-7-14-14-7-8-6-6 2-4 10-8 13-11 11-9 13-11 14-11 15-13 11-9 13-11 22-18 13-11 11-9 13-11 14-11 10-9 10-8 17-14 14-12 10-8 13-11 11-9 17-14 13-11 11-9 13-11 11-9 17-14 13-11 11-9 17-14 13-11 11-9 13-11 22-18 13-11 11-9 13-11 11-9 13-11 11-9 13-11z"/>
<path transform="translate(907,1181)" d="m0 0h106l2 7 10 75 11 81 9 67v6h-167l1-12 12-100 13-106 2-17z"/>
<path transform="translate(927,1014)" d="m0 0 64 1 1 1 9 70 4 29-1 1h-89l-1-3 7-55 5-42z"/>
<path transform="translate(940,906)" d="m0 0h35l2 1 7 52v7l-4 1h-46l-1-1 1-16 5-42z"/>
<path transform="translate(947,844)" d="m0 0h21l2 11 2 15v5h-28v-9z"/>
<path transform="translate(957,770)" d="m0 0 2 1 6 47v6h-15v-8l5-41z"/>
</svg>
